<svg width="8" height="11" viewBox="0 0 8 11" fill="none" xmlns="http://www.w3.org/2000/svg">
<path d="M3.74984 0.5C1.68228 0.5 0 2.15159 0 4.18163C0 4.71115 0.110393 5.21672 0.32795 5.68442C1.26552 7.69861 3.06309 9.82517 3.59181 10.4288C3.63143 10.474 3.68917 10.5 3.74995 10.5C3.81072 10.5 3.86847 10.474 3.90808 10.4288C4.4366 9.82525 6.23417 7.69881 7.17205 5.68442C7.38971 5.21672 7.5 4.71115 7.5 4.18163C7.49979 2.15159 5.81751 0.5 3.74984 0.5ZM3.74984 6.09389C2.67583 6.09389 1.80195 5.23596 1.80195 4.18153C1.80195 3.12701 2.67583 2.26907 3.74984 2.26907C4.82387 2.26907 5.69773 3.12701 5.69773 4.18153C5.69784 5.23596 4.82397 6.09389 3.74984 6.09389Z" fill="white"/>
</svg>
