<svg width="18" height="18" viewBox="0 0 18 18" fill="none" xmlns="http://www.w3.org/2000/svg">
<path d="M5.85693 1V4.25018" stroke="white" stroke-width="1.5" stroke-linecap="round"/>
<path d="M11.5996 1V4.25018" stroke="white" stroke-width="1.5" stroke-linecap="round"/>
<path d="M1.17016 13.5116C1.37668 15.354 2.87421 16.8169 4.72603 16.9061C6.00597 16.9677 7.31349 16.9997 8.73256 16.9997C10.1516 16.9997 11.4591 16.9677 12.7391 16.9061C14.5909 16.8169 16.0885 15.354 16.295 13.5116C16.4341 12.2709 16.5481 10.9988 16.5481 9.70299C16.5481 8.40718 16.4341 7.13513 16.295 5.89439C16.0885 4.05197 14.5909 2.58911 12.7391 2.49993C11.4591 2.43829 10.1516 2.40625 8.73256 2.40625C7.31349 2.40625 6.00597 2.43829 4.72603 2.49993C2.87421 2.58911 1.37668 4.05197 1.17016 5.89439C1.03109 7.13513 0.916992 8.40718 0.916992 9.70299C0.916992 10.9988 1.03109 12.2709 1.17016 13.5116Z" stroke="white" stroke-width="1.5"/>
<path d="M5.06805 7.92028C4.89132 7.92028 4.74805 7.77701 4.74805 7.60028C4.74805 7.42354 4.89132 7.28027 5.06805 7.28027" stroke="white" stroke-width="1.5"/>
<path d="M5.06836 7.92028C5.24509 7.92028 5.38836 7.77701 5.38836 7.60028C5.38836 7.42354 5.24509 7.28027 5.06836 7.28027" stroke="white" stroke-width="1.5"/>
<path d="M5.06805 12.1C4.89132 12.1 4.74805 11.9567 4.74805 11.78C4.74805 11.6032 4.89132 11.46 5.06805 11.46" stroke="white" stroke-width="1.5"/>
<path d="M5.06836 12.1C5.24509 12.1 5.38836 11.9567 5.38836 11.78C5.38836 11.6032 5.24509 11.46 5.06836 11.46" stroke="white" stroke-width="1.5"/>
<path d="M8.7326 7.92028C8.55587 7.92028 8.4126 7.77701 8.4126 7.60028C8.4126 7.42354 8.55587 7.28027 8.7326 7.28027" stroke="white" stroke-width="1.5"/>
<path d="M8.73291 7.92028C8.90964 7.92028 9.05291 7.77701 9.05291 7.60028C9.05291 7.42354 8.90964 7.28027 8.73291 7.28027" stroke="white" stroke-width="1.5"/>
<path d="M12.3972 7.92028C12.2204 7.92028 12.0771 7.77701 12.0771 7.60028C12.0771 7.42354 12.2204 7.28027 12.3972 7.28027" stroke="white" stroke-width="1.5"/>
<path d="M12.397 7.92028C12.5737 7.92028 12.7169 7.77701 12.7169 7.60028C12.7169 7.42354 12.5737 7.28027 12.397 7.28027" stroke="white" stroke-width="1.5"/>
</svg>
